<svg width="167" height="129" viewBox="0 0 167 129" fill="none" xmlns="http://www.w3.org/2000/svg">
<path d="M133.42 -77.0703C123.349 -61.9816 111.292 -41.7884 110.275 -21.4851C109.766 -11.3428 112.014 -1.17661 118.641 8.39788C125.27 17.9747 136.296 26.9809 153.379 34.7769C196.849 54.615 231.668 46.5424 257.646 42.6077C270.613 40.6436 281.455 39.6949 290.026 43.8759C298.62 48.0683 304.843 57.3673 308.733 75.6569L308.153 75.7581C304.273 57.5171 298.102 48.4349 289.756 44.363C281.387 40.2801 270.74 41.1825 257.744 43.1509C231.796 47.0812 196.788 55.1971 153.122 35.2695C135.968 27.4411 124.847 18.3761 118.144 8.69321C111.44 -0.992096 109.17 -11.2761 109.683 -21.5159C110.708 -41.9767 122.848 -62.2791 132.918 -77.3645L133.42 -77.0703ZM158.212 -188.588C148.141 -173.5 136.084 -153.306 135.067 -133.003C134.774 -127.157 135.398 -121.303 137.247 -115.559C138.367 -135.926 150.442 -156.114 160.466 -171.131L160.969 -170.838C150.898 -155.749 138.84 -135.555 137.823 -115.252C137.802 -114.837 137.788 -114.422 137.776 -114.007C138.447 -112.155 139.249 -110.315 140.193 -108.492C143.86 -125.316 153.65 -141.439 162.011 -153.965L162.513 -153.671C154.033 -140.966 144.145 -124.641 140.625 -107.679C141.457 -106.146 142.391 -104.626 143.433 -103.12C143.445 -103.103 143.457 -103.087 143.468 -103.07C148.144 -115.855 155.541 -127.826 162.068 -137.604L162.57 -137.311C155.972 -127.426 148.522 -115.349 143.882 -102.486C144.713 -101.323 145.61 -100.169 146.576 -99.024C150.768 -107.554 155.765 -115.483 160.338 -122.335L160.84 -122.04C156.221 -115.12 151.187 -107.124 146.989 -98.5372C147.603 -97.8249 148.245 -97.117 148.914 -96.4128C151.457 -100.702 154.073 -104.749 156.562 -108.478L157.064 -108.185C154.544 -104.409 151.897 -100.313 149.332 -95.9753C149.541 -95.7598 149.753 -95.5452 149.967 -95.3305C150.188 -95.6629 150.407 -95.9931 150.625 -96.3207L151.129 -96.0271C150.883 -95.659 150.636 -95.2876 150.388 -94.9135C157.001 -88.4007 166.064 -82.2662 178.171 -76.7412C221.641 -56.903 256.46 -64.9756 282.438 -68.9104C295.405 -70.8745 306.247 -71.8231 314.818 -67.6422C323.412 -63.4497 329.635 -54.1508 333.525 -35.8612L332.945 -35.76C329.065 -54.0009 322.894 -63.0831 314.548 -67.1551C306.179 -71.2379 295.532 -70.3356 282.536 -68.3672C256.588 -64.4368 221.58 -56.321 177.914 -76.2486C165.822 -81.7668 156.73 -87.9011 150.068 -94.4316C148.471 -92.0133 146.838 -89.4734 145.216 -86.8323C145.53 -86.3435 145.853 -85.8546 146.19 -85.3687C152.819 -75.792 163.844 -66.7863 180.926 -58.9904C224.397 -39.1523 259.216 -47.2248 285.194 -51.1597C298.161 -53.1237 309.004 -54.0725 317.575 -49.8913C326.169 -45.6989 332.391 -36.3999 336.281 -18.1105L335.701 -18.0092C331.821 -36.2499 325.652 -45.3323 317.305 -49.4042C308.936 -53.4872 298.289 -52.5848 285.293 -50.6164C259.345 -46.686 224.337 -38.5694 180.67 -58.4971C163.517 -66.3255 152.396 -75.3911 145.694 -85.074C145.415 -85.4766 145.145 -85.8811 144.882 -86.2857C143.759 -84.4456 142.643 -82.5578 141.552 -80.6276C142.911 -76.4113 144.93 -72.2538 147.734 -68.2027C154.363 -58.626 165.389 -49.6204 182.471 -41.8245C225.942 -21.9862 260.76 -30.0589 286.738 -33.9937C299.705 -35.9578 310.548 -36.9058 319.119 -32.7247C327.713 -28.5323 333.935 -19.2339 337.826 -0.944474L337.246 -0.84323C333.365 -19.0839 327.196 -28.1657 318.849 -32.2376C310.48 -36.3206 299.833 -35.4182 286.837 -33.4498C260.889 -29.5194 225.881 -21.4035 182.215 -41.3311C165.061 -49.1595 153.94 -58.2245 147.237 -67.9074C144.522 -71.8311 142.533 -75.853 141.162 -79.9305C140.925 -79.5055 140.688 -79.0791 140.453 -78.6503C140.103 -77.8238 139.763 -76.9929 139.433 -76.1584C139.886 -67.882 142.376 -59.6648 147.791 -51.8426C154.42 -42.2657 165.445 -33.2597 182.528 -25.4636C225.999 -5.6254 260.817 -13.698 286.795 -17.6328C299.763 -19.5969 310.606 -20.5457 319.177 -16.3645C327.771 -12.172 333.992 -2.87302 337.883 15.4164L337.303 15.5176C333.423 -2.72301 327.253 -11.8054 318.907 -15.8774C310.538 -19.9604 299.891 -19.0579 286.895 -17.0895C260.947 -13.1592 225.939 -5.04257 182.272 -24.9703C165.119 -32.7987 153.998 -41.8642 147.295 -51.5472C142.098 -59.0563 139.565 -66.9248 138.928 -74.8539C138.788 -74.4844 138.651 -74.114 138.516 -73.7431C138.099 -71.3211 137.817 -68.8891 137.695 -66.4553C137.187 -56.313 139.434 -46.1468 146.062 -36.5723C152.691 -26.9954 163.716 -17.9893 180.799 -10.1933C224.27 9.6448 259.088 1.57227 285.066 -2.36251C298.033 -4.32656 308.876 -5.27526 317.446 -1.09428C326.04 3.09816 332.263 12.3971 336.154 30.6867L335.573 30.7872C331.693 12.5466 325.523 3.46474 317.177 -0.607166C308.807 -4.69012 298.16 -3.78771 285.165 -1.81931C259.216 2.11107 224.209 10.227 180.543 -9.70067C163.389 -17.529 152.267 -26.594 145.565 -36.277C138.861 -45.9623 136.59 -56.2463 137.103 -66.486C137.175 -67.906 137.301 -69.325 137.475 -70.7417C135.528 -64.7946 134.224 -58.7019 133.918 -52.5993C133.41 -42.457 135.657 -32.2908 142.285 -22.7163C148.914 -13.1394 159.939 -4.13337 177.022 3.66267C220.493 23.501 255.312 15.4276 281.29 11.4928C294.257 9.52879 305.1 8.58064 313.671 12.7618C322.265 16.9543 328.486 26.2534 332.377 44.5427L331.797 44.6439C327.917 26.4029 321.747 17.3201 313.4 13.2482C305.031 9.16534 294.385 10.0684 281.389 12.0367C255.441 15.9671 220.433 24.0837 176.766 4.15601C159.613 -3.67232 148.492 -12.738 141.789 -22.4209C135.085 -32.1063 132.815 -42.3901 133.328 -52.63C133.687 -59.7872 135.405 -66.925 137.919 -73.827C132.651 -63.3327 128.557 -51.9046 127.982 -40.4413C127.474 -30.299 129.722 -20.1328 136.349 -10.5583C142.978 -0.981416 154.004 8.02471 171.087 15.8207C214.557 35.6589 249.376 27.5863 275.354 23.6515C288.321 21.6874 299.164 20.738 307.735 24.9191C316.328 29.1115 322.551 38.4111 326.441 56.7007L325.861 56.802C321.981 38.561 315.811 29.4782 307.465 25.4062C299.095 21.3232 288.448 22.2263 275.452 24.1947C249.504 28.1251 214.496 36.2409 170.83 16.3133C153.676 8.485 142.555 -0.580675 135.853 -10.2636C129.149 -19.9488 126.878 -30.2323 127.391 -40.472C128.003 -52.6937 132.582 -64.8584 138.316 -75.8889C138.458 -76.5875 138.61 -77.285 138.774 -77.9811C138.767 -78.3087 138.764 -78.6363 138.764 -78.964C129.865 -64.8611 120.866 -47.5237 119.993 -30.1051C119.485 -19.9628 121.732 -9.79654 128.36 -0.222048C134.989 9.35482 146.015 18.3609 163.097 26.1569C206.568 45.9951 241.387 37.9225 267.364 33.9877C280.332 32.0236 291.175 31.0742 299.745 35.2553C308.339 39.4478 314.561 48.7474 318.452 67.0369L317.872 67.1382C313.992 48.8972 307.822 39.8144 299.476 35.7425C291.106 31.6594 280.459 32.5625 267.463 34.5309C241.514 38.4613 206.507 46.5771 162.841 26.6496C145.687 18.8212 134.566 9.75618 127.863 0.0732812C121.159 -9.61203 118.888 -19.896 119.402 -30.1358C120.298 -48.0298 129.696 -65.8027 138.775 -80.0707C138.786 -80.6324 138.805 -81.1941 138.833 -81.7557C138.924 -83.573 139.104 -85.3892 139.362 -87.2005C138.765 -90.8255 138.594 -94.4737 138.776 -98.1165C138.8 -98.5983 138.832 -99.08 138.868 -99.5616C137.563 -104.31 137.057 -109.121 137.181 -113.929C134.922 -120.21 134.154 -126.631 134.475 -133.034C135.5 -153.495 147.64 -173.797 157.71 -188.883L158.212 -188.588ZM122.4 -69.8671C112.329 -54.7784 100.273 -34.5845 99.2553 -14.2812C98.7472 -4.13908 100.994 6.02675 107.621 15.6011C114.25 25.178 125.276 34.1841 142.359 41.9801C185.829 61.8184 220.648 53.7457 246.626 49.8109C259.593 47.8468 270.436 46.8987 279.007 51.0798C287.6 55.2723 293.823 64.5706 297.713 82.8601L297.133 82.9613C293.253 64.7206 287.083 55.6389 278.737 51.5669C270.367 47.4839 259.721 48.3864 246.725 50.3548C220.776 54.2852 185.769 62.4011 142.103 42.4734C124.949 34.6451 113.828 25.5801 107.125 15.8971C100.421 6.21179 98.1505 -4.07214 98.6636 -14.3119C99.6889 -34.7728 111.829 -55.0751 121.898 -70.1606L122.4 -69.8671ZM110.499 -63.6918C100.427 -48.6031 88.371 -28.4099 87.3535 -8.10662C86.8453 2.03568 89.0919 12.2025 95.7192 21.777C102.348 31.3538 113.374 40.3588 130.457 48.1547C173.928 67.993 208.746 59.9203 234.724 55.9855C247.691 54.0214 258.534 53.0733 267.105 57.2544C275.699 61.4468 281.921 70.7454 285.812 89.0347L285.231 89.1365C281.35 70.8957 275.181 61.8135 266.835 57.7415C258.465 53.6585 247.819 54.561 234.823 56.5294C208.875 60.4597 173.867 68.5757 130.201 48.648C113.047 40.8196 101.926 31.7547 95.2232 22.0717C88.5191 12.3864 86.2487 2.10244 86.7618 -8.13735C87.7872 -28.5979 99.9267 -48.9 109.996 -63.9854L110.499 -63.6918ZM97.82 -58.3075L98.0712 -58.1611C87.9999 -43.0724 75.9434 -22.8792 74.9259 -2.57592C74.4177 7.56638 76.6642 17.7332 83.2916 27.3077C89.9207 36.8846 100.947 45.8901 118.03 53.6861L119.046 54.1447C162.043 73.3976 196.522 65.4209 222.297 61.5169C235.264 59.5529 246.107 58.6041 254.677 62.7851C263.271 66.9776 269.494 76.2765 273.385 94.5661L273.094 94.6167L272.804 94.668C268.923 76.427 262.754 67.3442 254.407 63.2722C246.038 59.1892 235.391 60.0917 222.395 62.0601C196.65 65.9597 161.986 73.9805 118.794 54.641L117.773 54.1787C100.62 46.3504 89.4981 37.2854 82.7956 27.6024C76.0915 17.9171 73.821 7.6331 74.3341 -2.60664C75.3596 -23.0672 87.499 -43.3694 97.5681 -58.4547L97.82 -58.3075ZM85.3917 -52.9469C75.3203 -37.8582 63.2637 -17.6638 62.2463 2.63957C61.7382 12.7817 63.9849 22.9476 70.6121 32.5219C77.2412 42.0988 88.2668 51.1048 105.35 58.9009C148.82 78.7391 183.639 70.6665 209.617 66.7316C222.584 64.7676 233.428 63.8188 241.998 68C250.592 72.1925 256.814 81.4915 260.704 99.7809L260.124 99.8821C256.244 81.6415 250.075 72.5591 241.728 68.4871C233.359 64.4041 222.712 65.3066 209.717 67.2749C183.768 71.2053 148.76 79.3219 105.094 59.3942C87.9399 51.5658 76.8193 42.5003 70.1167 32.8173C63.4126 23.132 61.1415 12.8486 61.6545 2.60884C62.6798 -17.852 74.8201 -38.1544 84.8893 -53.2398L85.3917 -52.9469ZM72.672 -47.7855C62.6006 -32.6968 50.5448 -12.503 49.5273 7.80033C49.0191 17.9426 51.2652 28.1088 57.8924 37.6833C64.5215 47.2602 75.5478 56.2656 92.6307 64.0616C136.101 83.9 170.92 75.8272 196.898 71.8924C209.865 69.9283 220.708 68.9802 229.279 73.1614C237.872 77.3538 244.095 86.6523 247.985 104.942L247.405 105.043C243.524 86.8027 237.355 77.7205 229.009 73.6485C220.639 69.5655 209.992 70.4679 196.997 72.4363C171.048 76.3667 136.041 84.4826 92.3748 64.555C75.2209 56.7266 64.0996 47.6617 57.3971 37.9787C50.6929 28.2933 48.4225 18.0095 48.9356 7.76961C49.9609 -12.691 62.1005 -32.9931 72.1696 -48.0784L72.672 -47.7855ZM60.0645 -42.4791C49.9931 -27.3905 37.9367 -7.19718 36.9191 13.106C36.4109 23.2483 38.6575 33.4152 45.2848 42.9897C51.914 52.5666 62.9403 61.572 80.0232 69.368C123.494 89.2062 158.312 81.1336 184.29 77.1988C197.257 75.2348 208.1 74.2866 216.671 78.4678C225.265 82.6603 231.487 91.9588 235.378 110.248L234.797 110.35C230.917 92.1089 224.747 83.0261 216.401 78.9542C208.031 74.8713 197.385 75.7744 184.389 77.7427C158.441 81.6731 123.433 89.7888 79.7672 69.8614C62.6135 62.0331 51.4921 52.968 44.7895 43.2851C38.0853 33.5997 35.815 23.3158 36.328 13.076C37.3533 -7.38474 49.4922 -27.6873 59.5614 -42.7727L60.0645 -42.4791ZM47.6877 -36.8843C37.6163 -21.7956 25.5605 -1.60179 24.543 18.7016C24.0348 28.8438 26.2808 39.0101 32.9081 48.5845C39.5372 58.1614 50.5635 67.1669 67.6464 74.9629C111.117 94.8012 145.935 86.7285 171.914 82.7937C184.881 80.8296 195.724 79.8814 204.294 84.0626C212.888 88.2551 219.111 97.5535 223.001 115.843L222.42 115.945C218.54 97.704 212.371 88.6218 204.024 84.5497C195.655 80.4667 185.008 81.3692 172.013 83.3376C146.064 87.2679 111.057 95.3839 67.3905 75.4562C50.2366 67.6279 39.1153 58.5629 32.4127 48.8799C25.7085 39.1946 23.4382 28.9107 23.9513 18.6709C24.9766 -1.78999 37.1168 -22.0923 47.1861 -37.1778L47.6877 -36.8843ZM35.6289 -30.901C25.5575 -15.8123 13.5002 4.38134 12.4828 24.6847C11.9746 34.8269 14.222 44.9933 20.8493 54.5677C27.4784 64.1444 38.5037 73.1501 55.5862 80.946C99.0566 100.784 133.875 92.7116 159.853 88.7768C172.821 86.8127 183.664 85.8639 192.235 90.0451C200.829 94.2376 207.05 103.537 210.941 121.826L210.361 121.927C206.481 103.687 200.311 94.6042 191.965 90.5322C183.596 86.4492 172.949 87.3517 159.953 89.3201C134.005 93.2505 98.9967 101.367 55.3302 81.4394C38.1765 73.611 27.0558 64.5454 20.3533 54.8624C13.6492 45.1772 11.378 34.8937 11.8911 24.654C12.9164 4.19318 25.0566 -16.1092 35.1258 -31.1946L35.6289 -30.901ZM23.9453 -24.4642C13.8739 -9.37559 1.81739 10.8176 0.799949 31.1209C0.291748 41.2632 2.53907 51.4294 9.16642 61.0039C15.7956 70.5807 26.8212 79.5869 43.904 87.3829C87.3745 107.221 122.193 99.1485 148.171 95.2137C161.138 93.2496 171.981 92.3009 180.551 96.4819C189.145 100.674 195.367 109.973 199.258 128.262L198.678 128.363C194.798 110.123 188.628 101.041 180.281 96.969C171.912 92.8861 161.265 93.7885 148.269 95.7569C122.321 99.6873 87.3137 107.803 43.6474 87.8755C26.4937 80.0472 15.3722 70.9822 8.66966 61.2992C1.96556 51.6139 -0.304885 41.3299 0.2082 31.0902C1.23355 10.6293 13.3738 -9.67307 23.443 -24.7585L23.9453 -24.4642ZM140.579 -81.8006C140.465 -81.6254 140.35 -81.4503 140.236 -81.2739C139.921 -80.1592 139.63 -79.0404 139.366 -77.9182C139.367 -77.9028 139.367 -77.8874 139.367 -77.872C139.548 -78.2076 139.728 -78.5427 139.911 -78.8761C140.209 -79.5791 140.514 -80.279 140.825 -80.9755C140.74 -81.2503 140.658 -81.5254 140.579 -81.8006ZM142.819 -85.2102C142.22 -84.3099 141.614 -83.3921 141.005 -82.4573C141.066 -82.2349 141.129 -82.0126 141.194 -81.7905C141.718 -82.9407 142.263 -84.0801 142.819 -85.2102ZM139.716 -85.2947C139.583 -84.1059 139.485 -82.9154 139.425 -81.7249C139.414 -81.4966 139.405 -81.2682 139.396 -81.0398C139.493 -81.1906 139.589 -81.3415 139.686 -81.4915C139.849 -82.0682 140.019 -82.6439 140.195 -83.2182C140.019 -83.9092 139.859 -84.6014 139.716 -85.2947ZM144.395 -87.0456C143.959 -86.1933 143.529 -85.3349 143.108 -84.4702C143.58 -85.2649 144.055 -86.0514 144.531 -86.8288C144.485 -86.9009 144.441 -86.9734 144.395 -87.0456ZM142.986 -89.444C142.191 -87.3928 141.461 -85.3194 140.815 -83.2293C141.427 -84.1655 142.036 -85.0843 142.636 -85.9844L143.074 -85.7278C143.391 -86.365 143.711 -86.9993 144.036 -87.6294C143.67 -88.2322 143.32 -88.8372 142.986 -89.444ZM149.035 -95.4658C147.549 -92.9352 146.09 -90.325 144.703 -87.6488C144.758 -87.5592 144.813 -87.4694 144.869 -87.3799C146.468 -89.976 148.076 -92.4713 149.645 -94.846C149.439 -95.0519 149.237 -95.2592 149.035 -95.4658ZM141.109 -93.2453C140.636 -91.2399 140.249 -89.2238 139.959 -87.2023C140.12 -86.2341 140.313 -85.2681 140.536 -84.3041C141.165 -86.2614 141.864 -88.203 142.621 -90.124C142.072 -91.1595 141.568 -92.1997 141.109 -93.2453ZM146.715 -97.9814C145.477 -95.4182 144.315 -92.8037 143.263 -90.1503C143.607 -89.5083 143.969 -88.8685 144.349 -88.231C145.719 -90.8574 147.153 -93.4193 148.614 -95.9015C147.955 -96.5906 147.323 -97.2842 146.715 -97.9814ZM143.647 -101.826C142.759 -99.3065 141.98 -96.7585 141.339 -94.1915C141.81 -93.0664 142.329 -91.9462 142.903 -90.8326C143.943 -93.4188 145.086 -95.9658 146.299 -98.463C145.352 -99.5744 144.469 -100.696 143.647 -101.826ZM139.359 -97.8968C139.223 -94.988 139.316 -92.0777 139.674 -89.1801C139.962 -90.8444 140.313 -92.5038 140.721 -94.1549C140.207 -95.3964 139.755 -96.6442 139.359 -97.8968ZM140.448 -106.802C139.984 -104.412 139.651 -102.009 139.466 -99.6041C139.883 -98.1003 140.381 -96.6035 140.965 -95.115C141.606 -97.5686 142.369 -100.003 143.23 -102.41C143.132 -102.548 143.032 -102.686 142.936 -102.825C142.026 -104.14 141.199 -105.467 140.448 -106.802ZM137.754 -112.427C137.761 -108.708 138.159 -104.995 139.027 -101.316C139.248 -103.419 139.579 -105.517 140.007 -107.605C139.149 -109.2 138.401 -110.808 137.754 -112.427Z" fill="url(#paint0_radial_1_252)" fill-opacity="0.58"/>
<defs>
<radialGradient id="paint0_radial_1_252" cx="0" cy="0" r="1" gradientUnits="userSpaceOnUse" gradientTransform="translate(146.375 11.4078) rotate(33.3121) scale(155.973 157.648)">
<stop stop-color="white"/>
<stop offset="1" stop-color="#1E1E1E" stop-opacity="0"/>
<stop offset="1" stop-color="#0E0E35" stop-opacity="0"/>
<stop offset="1" stop-color="white" stop-opacity="0"/>
</radialGradient>
</defs>
</svg>
